<?xml version="1.0" encoding="UTF-8"?>
<svg xmlns="http://www.w3.org/2000/svg" width="24" height="24" version="1.1" viewBox="0 0 24 24">
    <g transform="matrix(.32396 0 0 .32396 28.289 -48.686)">
        <path fill="oklch(0.985 0 0)" d="m-42.346 182.03v42.327h10.582v-31.745h10.587l-0.0049-10.582z"/>
        <path fill="oklch(0.546 0.245 262.881)" d="m-58.217 166.16h-21.167v5.2917c0 0.30691 0.02646 0.61648 0.07937 0.9181 0.05292 0.30163 0.13494 0.60325 0.24077 0.89165 0.10319 0.28839 0.23548 0.5715 0.38894 0.83608s0.33073 0.52123 0.52917 0.75671c0.19579 0.23283 0.41804 0.45508 0.65088 0.65087 0.23548 0.19844 0.49212 0.37571 0.75671 0.52917s0.54769 0.28575 0.83608 0.38894c0.2884 0.10583 0.59002 0.18785 0.89165 0.24077 0.30162 0.0529 0.61119 0.0794 0.9181 0.0794h15.875v47.625h10.583v-47.625h26.4c0.06719-1.8983 0-3.5278 0-5.2917 0.0132-0.15346 0.0132 0.15345 0 0-0.0132-0.15346-0.0265-0.61648-0.0794-0.91811-0.0529-0.30162-0.13494-0.60325-0.24077-0.89164-0.10319-0.2884-0.23548-0.5715-0.38894-0.83609-0.15346-0.26458-0.33073-0.52123-0.52917-0.75671-0.19579-0.23283-0.41804-0.45508-0.65088-0.65087-0.23548-0.19844-0.49212-0.37571-0.75671-0.52917-0.26458-0.15346-0.54769-0.28575-0.83608-0.38893-0.2884-0.10584-0.59002-0.18786-0.89164-0.24078-0.30162-0.0529-0.61119-0.0794-0.9181-0.0794h-21.108v-15.875h-5.2917c-0.30692 0-0.61648 0.0265-0.9181 0.0794s-0.60325 0.13493-0.89165 0.24077c-0.2884 0.10318-0.5715 0.23548-0.83608 0.38893-0.26458 0.15346-0.52123 0.33073-0.75671 0.52917-0.23283 0.19579-0.45508 0.41804-0.65088 0.65088-0.19844 0.23547-0.37571 0.49212-0.52917 0.7567-0.15346 0.26459-0.28575 0.54769-0.38894 0.83609-0.10583 0.28839-0.18785 0.59002-0.24077 0.89164-0.05292 0.30163-0.07937 0.61119-0.07937 0.91811v10.583h-21.167"/>
    </g>
</svg>